PathFileType	4	(X/Y/Z)	c:/Users/goper/Files/vsCode/490R/osim_files/C08/C08_Fast_01.trc
DataRate	CameraRate	NumFrames	NumMarkers	Units                	OrigDataRate	OrigDataStartFrame	OrigNumFrames
250.00	250.00	8	36	mm	250.0	850	2264
                Frame#	Time	LPSIS			LASIS			LTH1			LTH2			LTH3			LTH4			LLFE			LMFE			LSH1			LSH2			LSH3			LSH4			LLMAL			LMMAL			LCAL			LMTP5			LTOE			LMTP1			RPSIS			RASIS			RTH1			RTH2			RTH3			RTH4			RLFE			RMFE			RSH1			RSH2			RSH3			RSH4			RLMAL			RMMAL			RCAL			RMTP1			RTOE			RMTP5		
		X1	Y1	Z1	X2	Y2	Z2	X3	Y3	Z3	X4	Y4	Z4	X5	Y5	Z5	X6	Y6	Z6	X7	Y7	Z7	X8	Y8	Z8	X9	Y9	Z9	X10	Y10	Z10	X11	Y11	Z11	X12	Y12	Z12	X13	Y13	Z13	X14	Y14	Z14	X15	Y15	Z15	X16	Y16	Z16	X17	Y17	Z17	X18	Y18	Z18	X19	Y19	Z19	X20	Y20	Z20	X21	Y21	Z21	X22	Y22	Z22	X23	Y23	Z23	X24	Y24	Z24	X25	Y25	Z25	X26	Y26	Z26	X27	Y27	Z27	X28	Y28	Z28	X29	Y29	Z29	X30	Y30	Z30	X31	Y31	Z31	X32	Y32	Z32	X33	Y33	Z33	X34	Y34	Z34	X35	Y35	Z35	X36	Y36	Z36

850	3.39600	1195.86694	1031.84802	209.17265	981.25458	994.19257	279.11636	1002.16003	731.93317	357.96707	977.66644	658.28375	337.56308	953.72815	589.52435	331.35907	0.00000	0.00000	0.00000	939.82513	541.45697	319.93872	938.68799	534.18512	190.77151	975.01959	407.24893	332.02539	965.11652	361.46573	329.94260	914.95612	416.88953	326.93256	914.06342	370.05402	322.30856	945.20026	94.67267	269.97995	920.96991	107.92104	180.92844	1004.37610	73.14842	209.50986	825.71368	46.83845	296.44803	766.75214	73.83573	238.74628	781.42590	29.76208	174.65366	1198.58582	1025.14246	149.59651	1015.67657	981.86768	41.41737	1089.69580	717.79504	-12.29360	1087.79529	638.22144	-1.79797	1091.15808	559.00903	2.35268	1011.58997	640.61713	16.81749	1096.23328	490.71719	12.47792	1078.93628	477.80978	138.29520	1179.71631	465.18481	-1.51768	1208.69446	431.32623	-5.42193	1138.14697	419.75995	9.40724	1173.10303	392.23709	4.99841	1443.11328	247.87134	54.25526	1422.68054	232.11983	144.40599	1487.09973	294.40808	121.13284	1420.56287	92.78125	147.39836	1395.02820	83.84011	92.76355	1444.18933	107.15943	33.45881
851	3.40000	1189.99817	1031.92651	209.31355	975.60651	994.99463	279.61462	997.92017	731.67432	358.12262	973.21661	657.58453	337.89520	950.38873	589.12549	331.46735	901.05182	688.58704	318.86838	936.65765	540.93359	320.16208	934.99731	533.86292	190.88916	972.05499	407.09952	332.04501	962.48187	361.18695	329.74680	911.86218	416.29468	326.86316	911.42334	369.50421	322.16037	944.80493	94.74191	269.75452	920.65448	107.72183	180.68730	1004.26953	73.27682	209.43274	825.58466	46.74730	296.34094	766.42462	72.76388	238.32869	781.07422	27.34701	174.24992	1192.78320	1025.12744	149.68675	1010.09442	981.75757	41.88061	1081.10828	717.73541	-12.06185	1078.59485	638.65106	-1.55113	1080.63025	558.93176	2.43441	1002.12811	641.38983	17.13670	1084.89246	490.86151	13.10405	1067.88306	478.58945	138.74272	1167.91736	465.82092	-1.51962	1197.24341	432.20761	-5.49146	1126.85266	420.11282	9.72337	1161.76221	392.70395	5.40249	1433.28564	251.44553	54.17804	1413.83899	236.19434	144.34000	1476.82117	296.87311	120.37635	1410.86108	95.64132	146.29787	1385.61816	87.07813	92.34767	1434.40869	110.65870	32.98750
852	3.40400	1184.47839	1032.42773	209.30406	970.07385	995.50140	280.22427	993.82391	731.42560	358.26855	969.37689	657.15698	337.98599	947.12921	588.63873	331.47678	897.08447	687.61151	319.61969	934.32391	540.36395	320.23154	931.47064	533.44513	190.93500	969.29626	406.96793	332.02258	960.01508	360.92587	329.48755	909.06104	415.64832	326.81873	908.90552	368.82321	321.83841	944.47797	94.83576	269.57779	920.33179	107.54417	180.41580	1004.18707	73.29364	209.45711	825.47803	46.66010	296.29846	766.13568	71.85782	238.07387	780.79877	24.97386	173.86438	1187.10254	1025.40173	149.72507	1003.72174	982.26605	42.84535	1072.55383	717.84198	-11.74633	1069.06567	638.78168	-1.34804	1068.45398	558.16089	3.14637	992.45483	642.23486	17.66293	1073.44604	491.11420	12.57730	1056.86719	479.41653	139.17697	1156.19373	466.67743	-1.38139	1185.18384	433.03461	-4.89573	1115.49072	420.68710	10.06613	1150.62439	393.49457	5.67863	1423.18359	254.73167	54.08408	1404.13354	239.37210	144.23230	1468.01648	300.66058	121.11103	1401.16077	98.69431	145.91611	1376.31580	90.29741	92.14552	1424.06287	113.64759	32.66982
853	3.40800	1179.21851	1032.89795	209.45786	964.42603	996.62195	280.58871	989.84790	731.22803	358.36636	965.46753	656.73383	337.34497	943.95020	588.41278	331.72781	893.07330	686.76709	320.14557	930.72919	539.91095	320.33664	928.09015	533.03387	190.95694	966.73413	406.78726	331.78952	957.77808	360.67340	329.11725	906.38440	415.01697	326.64917	906.61414	368.21600	321.58585	944.48920	94.99849	269.35605	919.97247	107.36138	180.16306	1004.10699	73.40843	209.39276	825.39264	46.57877	296.31036	765.76288	71.05197	237.89801	780.59790	22.64270	173.49680	1181.14148	1025.34375	150.07716	997.69885	982.40222	43.45547	1064.14758	718.13354	-11.39528	1059.33691	638.74976	-1.24721	1057.95105	558.40723	3.35928	983.12488	643.35535	18.10723	1062.07202	491.52765	12.74341	1046.05225	480.47195	139.71878	1144.45996	467.60388	-1.09373	1174.11462	434.41541	-4.98599	1104.04785	421.26730	10.52505	1139.62231	394.55829	5.86165	1413.04846	257.67505	54.03994	1393.73499	241.69354	144.18872	1458.29138	303.43649	120.96090	1390.99341	101.53132	145.78378	1365.97021	93.34987	91.79203	1413.95398	116.61908	32.17847
854	3.41200	1172.85901	1032.95898	209.84706	958.87463	997.46417	281.10623	985.94489	731.09015	358.43713	962.23285	656.85687	337.72412	941.49634	588.09705	331.58691	0.00000	0.00000	0.00000	927.88245	539.49609	320.31253	924.76740	532.65826	190.92847	964.39417	406.74387	331.48505	955.75311	360.48572	328.71735	904.00110	414.47778	326.45169	904.61670	367.76355	321.36264	943.89594	94.99360	269.21411	919.68494	107.23006	179.91541	1004.32532	73.85555	209.42772	825.32861	46.51066	296.31372	765.49756	70.34482	237.71597	780.46948	20.35372	173.14694	1175.54175	1025.64575	150.39497	991.68567	982.66559	43.98152	1055.68494	718.47803	-10.96544	1049.91492	639.21075	-0.87646	1047.48877	558.86676	3.63363	973.80939	644.89099	18.37192	1050.75891	492.12180	12.92692	1035.09961	481.46997	140.20418	1132.73120	468.68533	-0.69581	1162.58130	435.67880	-4.64929	1092.64294	422.12613	10.91109	1128.34790	395.59039	6.17138	1402.74695	260.40723	54.00615	1383.69983	244.38654	144.16144	1448.45532	305.81085	120.82325	1380.35706	104.32523	145.39101	1355.10229	96.21493	91.56378	1404.26929	120.07834	31.50295
855	3.41600	1167.14014	1033.38525	210.20480	953.37482	998.27887	281.65820	982.12207	731.04370	358.50394	958.80554	656.79547	337.62271	937.84528	587.80927	331.48438	0.00000	0.00000	0.00000	925.56189	539.25769	320.21310	921.78369	532.43970	190.82953	962.39471	406.84976	331.11749	954.06213	360.52106	328.33267	901.82867	414.05994	326.28198	902.81653	367.44153	321.13156	943.62805	95.10031	269.02194	919.46680	107.13949	179.69073	1003.99689	73.62585	209.26451	825.25409	46.47078	296.28510	765.23956	69.66103	237.53670	780.41174	18.10702	172.81453	1169.55249	1026.02234	150.85725	985.71716	983.02405	44.52454	1047.03186	718.68463	-10.68696	1040.76978	640.12640	-0.23654	1037.07910	559.43280	3.98616	964.41553	646.03687	19.11410	1039.45044	492.82538	13.18572	1024.18701	482.52722	140.66396	1121.02283	469.85797	-0.18900	1151.05054	437.02847	-4.26124	1081.15771	423.03769	11.32393	1116.96069	396.70193	6.52764	1392.16956	262.92328	54.01780	1373.42065	246.93744	144.14815	1438.20886	308.51450	120.45771	1368.98840	106.72270	145.30763	1343.36267	98.78603	91.27966	1393.86353	122.84805	31.81348
856	3.42000	1161.58899	1034.09314	210.57516	948.62781	999.38342	282.01385	978.26440	731.10651	358.63095	955.31708	656.70782	337.58926	935.38184	587.65729	331.38510	0.00000	0.00000	0.00000	922.13251	539.07996	320.10754	917.26257	532.47351	190.78951	959.88837	406.64807	330.45517	952.29083	360.50348	327.87515	900.08026	413.74542	326.04208	901.17859	367.26797	320.98523	943.41235	95.20760	268.84433	919.25006	107.04938	179.44608	1003.94141	73.71999	209.17760	825.19794	46.44633	296.24792	765.11353	69.04458	237.33560	780.42255	15.90271	172.49934	1163.95496	1026.74561	151.32074	979.71759	983.54742	44.98655	1038.79456	719.48871	-9.72847	1031.22180	640.52258	0.12797	1026.67371	560.11481	4.45668	955.12128	647.54370	19.69480	1027.71460	493.56821	13.82188	1013.23987	483.54831	141.20221	1109.31799	471.13452	0.36031	1139.45471	438.43921	-3.79798	1069.66992	424.20258	11.66410	1105.54211	397.96768	6.79837	1381.28247	265.24170	54.04122	1362.86340	249.27081	144.20044	1428.22424	310.55200	120.64674	1358.21558	109.43715	144.95598	1331.88147	101.33375	91.01059	1380.15698	125.01871	31.60882
857	3.42400	1155.80664	1034.66602	211.12010	942.12885	999.70447	282.85156	975.99219	731.85712	358.58130	951.74152	656.93884	337.65836	932.26990	587.56250	331.23538	878.24384	684.21759	322.46933	919.89825	539.03888	319.98898	928.11969	528.19775	190.43291	958.80585	407.31943	330.22086	951.05920	360.93466	327.57733	898.34265	413.58008	325.86444	900.40253	368.04559	321.80362	943.23163	95.28849	268.69696	919.04877	106.97640	179.21086	1003.86121	73.76193	209.11493	825.13995	46.42811	296.20633	764.93365	68.50784	237.18076	780.50012	13.74096	172.20114	1158.11951	1027.27795	152.00172	973.78430	984.25958	45.41697	1030.32751	719.94812	-9.45727	1022.09180	641.57599	1.01006	1016.37103	560.92554	5.01948	946.44958	649.38312	20.68335	1017.04675	494.82431	13.80596	1002.17126	484.54688	141.57745	1097.67529	472.49750	1.00816	1127.61328	439.73969	-3.12170	1058.12805	425.38300	12.07930	1094.08777	399.28610	7.09714	1370.25122	267.32013	54.09901	1351.94653	251.23637	144.24361	1417.40308	311.89554	120.85191	1346.55212	111.09690	144.43132	1319.88672	103.62700	90.86818	1368.53528	127.76237	31.40557
